<?xml version="1.0" standalone="no"?>
<!DOCTYPE svg PUBLIC "-//W3C//DTD SVG 20010904//EN"
 "http://www.w3.org/TR/2001/REC-SVG-20010904/DTD/svg10.dtd">
<svg version="1.0" xmlns="http://www.w3.org/2000/svg"
 width="1590.000000pt" height="1590.000000pt" viewBox="0 0 1590.000000 1590.000000"
 preserveAspectRatio="xMidYMid meet">
<metadata>
Created by potrace 1.14, written by Peter Selinger 2001-2017
</metadata>
<g transform="translate(0.000000,1590.000000) scale(0.100000,-0.100000)"
fill="#000000" stroke="none">
<path d="M4440 12097 c-86 -41 -275 -195 -540 -442 -102 -95 -751 -745 -875
-876 -202 -214 -284 -301 -456 -489 -97 -106 -369 -415 -423 -480 -36 -45 55
133 259 505 48 88 109 198 135 245 26 47 60 108 75 135 134 241 329 590 398
712 130 227 156 274 235 424 34 64 62 125 62 137 0 73 -251 135 -337 82 -30
-18 -35 -18 -67 -5 -20 8 -45 15 -57 15 -30 0 -114 -44 -179 -93 -135 -104
-423 -406 -671 -702 -46 -55 -89 -106 -96 -113 -7 -7 -29 -34 -50 -60 -21 -26
-41 -49 -44 -52 -3 -3 -41 -50 -85 -105 -43 -55 -81 -102 -84 -105 -26 -24
-446 -575 -621 -815 -373 -511 -785 -1128 -873 -1308 -42 -87 -47 -131 -20
-178 30 -51 93 -87 196 -114 144 -36 153 -31 238 130 217 412 489 843 853
1350 251 350 643 854 838 1080 188 217 274 310 247 265 -33 -54 -247 -440
-303 -545 -32 -60 -68 -128 -80 -150 -63 -112 -265 -504 -421 -816 -234 -469
-290 -598 -280 -652 10 -52 54 -102 120 -136 72 -38 130 -40 195 -9 58 27 614
581 1175 1169 55 57 154 161 220 230 67 69 164 170 216 225 263 277 475 499
563 590 54 56 105 110 113 121 40 48 -14 -33 -166 -247 -91 -129 -173 -246
-182 -260 -10 -14 -36 -52 -59 -85 -59 -84 -494 -738 -550 -827 -185 -292
-319 -538 -359 -658 -53 -157 27 -320 180 -368 97 -30 170 -21 289 34 269 126
758 555 807 707 7 20 4 66 -8 145 -35 224 -44 235 -121 146 -86 -100 -297
-306 -388 -379 -101 -81 -176 -128 -248 -156 l-51 -19 30 59 c99 198 462 767
752 1181 283 402 658 922 912 1260 81 108 116 163 116 182 0 36 -47 68 -108
73 -80 7 -134 16 -214 36 -85 21 -170 24 -208 6z"/>
<path d="M13945 12105 c-5 -1 -37 -11 -70 -20 -122 -36 -282 -124 -412 -226
-60 -47 -66 -49 -195 -74 -73 -13 -144 -27 -158 -30 -14 -3 -79 -12 -145 -20
-66 -9 -136 -18 -155 -20 -19 -3 -60 -7 -90 -10 -30 -3 -66 -7 -80 -10 -105
-16 -493 -23 -665 -12 -134 9 -186 19 -220 41 -22 14 -24 20 -14 39 6 12 21
33 34 47 45 51 38 74 -23 79 -88 7 -232 -54 -304 -131 -51 -54 -62 -88 -61
-203 1 -105 48 -161 174 -208 200 -75 657 -82 995 -16 28 5 64 12 80 15 54 9
69 12 169 34 55 12 124 28 153 37 30 8 56 13 58 10 3 -2 -15 -29 -39 -58 -91
-113 -223 -306 -437 -639 -122 -190 -276 -426 -343 -525 -196 -292 -485 -692
-511 -707 -7 -4 -22 -1 -34 7 -17 12 -19 20 -12 44 11 38 -1 55 -34 47 -67
-17 -287 -283 -360 -436 -37 -77 -41 -92 -40 -160 1 -87 16 -124 71 -169 99
-82 247 -73 390 22 160 107 345 339 624 785 59 94 277 449 352 572 146 241
779 1170 885 1300 17 21 44 30 174 57 196 42 185 39 281 69 112 34 238 98 282
142 61 61 73 108 44 186 -39 106 -113 147 -263 145 -50 0 -95 -2 -101 -4z"/>
<path d="M10630 12063 c-108 -17 -244 -63 -340 -115 -41 -23 -81 -45 -88 -51
-7 -5 -26 -17 -42 -26 -89 -49 -363 -294 -523 -469 -235 -257 -483 -601 -873
-1212 -156 -245 -383 -560 -443 -614 -16 -14 -27 -14 -142 9 -68 13 -146 26
-174 30 -27 3 -71 8 -97 11 -137 16 -439 3 -531 -23 -16 -4 -15 0 7 35 49 78
58 111 62 239 4 121 -5 173 -33 201 -18 18 -37 6 -108 -70 -56 -57 -122 -119
-275 -254 -83 -74 -225 -184 -316 -246 -81 -56 -211 -128 -231 -128 -21 0 7
84 71 215 124 252 430 739 819 1300 42 61 105 153 141 205 87 126 96 139 327
466 113 159 202 295 205 313 8 38 -13 65 -63 82 -49 16 -222 18 -322 3 -95
-14 -91 -11 -241 -183 -36 -41 -72 -82 -80 -91 -8 -9 -46 -52 -85 -95 -162
-183 -379 -423 -512 -565 -28 -30 -66 -71 -83 -90 -133 -146 -359 -379 -605
-625 -321 -322 -475 -469 -644 -615 -35 -30 -69 -60 -75 -66 -29 -27 -268
-215 -327 -257 -79 -56 -144 -86 -169 -80 -51 13 -58 90 -20 203 43 127 186
404 315 605 223 350 450 664 963 1332 126 165 250 326 274 359 64 83 67 104
23 153 -35 38 -44 43 -140 75 -59 19 -133 21 -172 4 -15 -7 -71 -45 -123 -84
-85 -64 -188 -134 -360 -246 -171 -111 -369 -208 -426 -208 -42 0 -44 15 -4
60 37 44 38 60 1 60 -49 0 -160 -90 -196 -160 -10 -18 -19 -58 -22 -89 -4 -49
-1 -64 29 -121 28 -55 41 -68 87 -92 98 -51 184 -35 321 61 50 35 184 143 192
156 4 5 8 7 8 2 0 -4 -39 -56 -87 -115 -231 -285 -591 -800 -798 -1142 -163
-271 -292 -567 -325 -750 -44 -240 35 -422 205 -472 81 -25 229 -14 320 22 33
14 209 99 230 113 123 77 289 197 346 249 14 13 43 38 65 57 222 189 534 503
815 821 46 52 89 100 94 106 6 6 35 40 65 74 30 35 72 82 93 104 39 41 39 41
-7 -24 -364 -512 -631 -1004 -673 -1235 -28 -152 30 -278 143 -315 131 -44
482 84 784 287 l65 43 7 -57 c16 -123 50 -182 135 -240 67 -44 164 -77 268
-92 68 -10 355 -8 372 2 4 3 31 8 58 11 209 27 457 140 653 297 52 42 53 42
95 30 80 -23 172 -50 272 -80 380 -112 679 -183 875 -207 25 -3 56 -7 70 -9
149 -26 545 -26 639 -1 120 32 137 46 253 211 54 77 88 140 88 163 0 27 0 27
-59 -3 -73 -39 -171 -53 -334 -50 -148 4 -210 9 -313 25 -33 6 -85 13 -115 16
-30 3 -57 7 -60 9 -3 2 -28 7 -55 11 -27 3 -51 8 -54 9 -3 2 -26 6 -50 10 -41
6 -111 20 -340 69 -83 18 -573 138 -578 142 -2 1 41 65 95 141 55 76 233 338
397 582 484 722 639 925 905 1191 158 157 180 177 288 248 91 60 129 77 199
88 47 7 59 -3 50 -41 -14 -57 -316 -330 -496 -448 -95 -62 -115 -70 -140 -55
-52 33 -90 -88 -56 -177 23 -58 92 -127 145 -145 83 -27 206 19 386 145 164
114 287 222 389 339 194 226 255 400 196 560 -60 159 -223 220 -480 179z
m-2784 -2787 c54 -4 101 -9 103 -12 8 -8 -132 -66 -205 -84 -142 -37 -294 -30
-344 15 -43 39 14 73 140 82 41 3 76 6 77 7 4 3 138 -2 229 -8z"/>
<path d="M15005 12038 c-83 -48 -468 -579 -1034 -1428 -141 -212 -275 -414
-297 -450 -23 -36 -95 -148 -161 -250 -242 -377 -412 -658 -486 -810 -45 -91
-52 -114 -55 -178 l-4 -72 33 -14 c52 -21 95 -25 122 -11 14 7 40 13 59 13 18
0 70 12 114 26 88 28 120 52 162 126 14 25 29 47 32 50 3 3 32 50 65 105 33
55 63 105 68 110 4 6 62 98 128 205 67 107 137 221 158 252 20 31 68 107 106
168 39 61 100 157 136 213 36 56 144 224 240 372 195 303 989 1497 1000 1505
11 8 14 33 5 58 -7 22 -9 22 -189 22 -118 -1 -189 -5 -202 -12z"/>
<path d="M7050 7610 c-19 -3 -45 -12 -57 -18 -34 -19 -82 -90 -108 -162 -34
-95 -146 -301 -285 -526 -150 -243 -641 -966 -924 -1362 -212 -297 -226 -316
-226 -306 0 5 18 100 40 210 46 234 45 232 60 304 6 30 14 66 16 80 3 14 19
93 36 175 16 83 32 161 35 175 2 14 15 77 28 140 13 63 26 126 29 140 2 14 9
45 15 70 5 25 12 56 15 70 2 14 10 50 16 80 6 30 13 71 16 90 3 19 8 38 10 41
2 3 6 21 9 39 3 19 19 95 35 169 16 75 31 147 34 161 2 14 11 55 19 91 16 76
10 102 -30 123 -46 23 -88 25 -173 7 -63 -14 -93 -16 -133 -9 -77 14 -114 -1
-194 -80 -69 -68 -183 -195 -238 -266 -16 -22 -48 -62 -71 -90 -22 -28 -67
-87 -99 -131 -33 -44 -63 -84 -68 -90 -67 -79 -552 -796 -729 -1077 -306 -490
-553 -920 -687 -1198 -93 -192 -94 -225 -11 -268 48 -25 43 -24 231 -3 41 4
85 15 97 22 21 13 72 105 87 159 37 126 396 737 849 1445 224 350 530 794 602
873 23 24 25 25 19 5 -3 -12 -7 -30 -9 -40 -2 -10 -18 -88 -36 -173 -17 -85
-33 -166 -36 -180 -3 -14 -31 -160 -64 -325 -33 -165 -62 -316 -65 -335 -3
-19 -8 -42 -10 -50 -2 -8 -7 -28 -10 -45 -12 -68 -16 -93 -30 -160 -8 -38 -17
-86 -20 -105 -3 -19 -8 -46 -10 -60 -13 -63 -30 -156 -40 -220 -3 -19 -8 -42
-10 -50 -2 -8 -6 -33 -10 -55 -5 -35 -38 -231 -51 -305 -2 -14 -7 -66 -10
-117 l-6 -92 29 -30 c35 -34 108 -58 203 -67 74 -6 117 6 160 47 94 90 687
885 1032 1384 30 44 80 116 110 161 68 97 335 499 404 606 27 42 75 119 108
170 32 51 69 109 81 128 65 102 193 324 250 432 129 249 139 310 56 356 -69
39 -198 58 -281 42z"/>
<path d="M13010 7510 c-43 -12 -167 -97 -264 -180 -217 -185 -315 -279 -751
-715 -331 -331 -601 -610 -677 -698 -11 -12 -43 -47 -72 -77 -73 -77 -333
-365 -441 -491 -49 -57 -103 -117 -119 -134 l-28 -30 30 55 c16 30 65 120 107
200 64 120 231 425 378 690 26 47 194 348 280 503 15 26 39 68 53 95 15 26 30
52 34 57 4 6 24 41 44 78 20 37 46 84 58 105 50 86 171 310 189 350 25 55 22
71 -19 99 -79 53 -238 71 -299 34 -30 -19 -34 -19 -72 -4 -48 19 -96 9 -165
-34 -101 -63 -304 -255 -482 -453 -27 -30 -51 -57 -54 -60 -3 -3 -46 -52 -95
-110 -50 -58 -93 -107 -96 -110 -3 -3 -74 -88 -158 -190 -84 -102 -160 -194
-170 -205 -26 -31 -318 -408 -423 -546 -171 -225 -610 -836 -638 -889 -5 -10
-16 -24 -23 -32 -18 -19 -326 -489 -386 -590 -58 -98 -98 -181 -105 -219 -10
-58 52 -139 129 -169 65 -25 196 -49 221 -39 30 11 47 35 119 174 37 72 71
135 75 140 4 6 22 37 40 70 47 85 53 97 71 125 9 14 60 97 114 185 80 130 194
302 394 599 90 131 422 582 580 786 148 192 470 584 500 610 3 3 35 39 71 80
105 121 110 124 59 38 -18 -29 -43 -73 -57 -98 -14 -25 -53 -94 -87 -155 -60
-106 -176 -322 -284 -527 -28 -54 -74 -142 -102 -195 -78 -149 -403 -797 -444
-888 -72 -157 -96 -227 -92 -262 9 -62 54 -113 136 -151 69 -32 143 -27 205
14 56 37 890 876 1192 1199 20 22 118 125 218 229 100 104 192 201 206 216 14
14 104 109 201 211 98 101 198 207 224 234 103 109 218 225 220 223 2 -2 -30
-49 -71 -106 -221 -306 -640 -920 -830 -1217 -299 -467 -422 -702 -431 -826
-5 -57 -2 -75 20 -123 36 -78 104 -141 175 -162 85 -25 165 -22 241 9 238 97
721 493 834 684 25 43 27 55 22 108 -3 33 -7 71 -10 85 -3 14 -8 50 -12 80 -7
65 -28 120 -47 120 -7 0 -37 -28 -67 -62 -91 -106 -289 -300 -381 -373 -101
-82 -175 -128 -247 -156 l-51 -19 39 78 c90 180 418 694 712 1117 103 149 371
528 391 555 11 14 96 131 190 260 94 129 240 328 324 441 85 114 154 215 154
226 0 44 -45 74 -122 80 -69 5 -199 29 -258 48 -32 10 -94 13 -120 5z"/>
<path d="M15610 7478 c-11 -12 -32 -44 -46 -72 -15 -28 -28 -53 -30 -55 -2 -2
-17 8 -34 23 -17 14 -44 26 -59 26 -61 0 -302 -144 -536 -320 -401 -302 -952
-839 -1432 -1396 -17 -21 -31 -22 -218 -29 -282 -9 -387 -33 -482 -111 -50
-41 -70 -75 -76 -130 -9 -78 33 -126 96 -110 47 11 126 18 255 20 l131 2 -17
-22 c-9 -12 -59 -78 -110 -145 -51 -68 -98 -131 -105 -139 -7 -9 -40 -56 -73
-105 -191 -279 -272 -461 -252 -561 15 -74 114 -154 190 -154 41 0 95 32 110
65 6 14 15 25 20 25 4 0 8 5 8 10 0 34 483 762 554 836 6 6 38 48 71 93 l60
82 230 -6 c127 -3 273 -8 325 -10 52 -3 151 -6 218 -9 68 -2 125 -6 127 -8 2
-2 -17 -46 -42 -98 -25 -52 -62 -131 -83 -175 -36 -76 -55 -118 -191 -404 -33
-68 -59 -124 -59 -126 0 -1 -28 -61 -61 -131 -73 -154 -82 -179 -65 -193 18
-15 65 -16 112 -2 23 6 73 14 110 17 170 15 259 111 444 479 53 104 118 237
145 295 26 58 88 193 137 300 49 107 99 215 110 240 11 25 67 146 123 270 56
124 116 254 132 290 70 151 133 292 279 628 206 473 254 598 245 644 -8 36
-62 92 -129 136 -78 49 -108 56 -132 30z m-264 -516 c-19 -37 -59 -119 -89
-182 -30 -63 -87 -182 -127 -265 -115 -238 -179 -372 -232 -485 -27 -58 -81
-172 -121 -253 l-71 -148 -90 5 c-237 14 -457 23 -614 25 -69 1 -72 2 -60 20
14 20 109 128 203 231 73 79 489 496 565 565 188 172 354 312 565 480 39 31
98 74 103 75 1 0 -13 -31 -32 -68z"/>
<path d="M8810 7457 c-3 -3 -30 -7 -61 -10 -31 -4 -76 -11 -100 -16 -24 -6
-58 -12 -76 -16 -54 -9 -257 -63 -324 -85 -335 -113 -630 -280 -810 -459 -134
-133 -195 -237 -220 -374 -19 -106 7 -244 62 -323 62 -91 183 -169 322 -209
l58 -17 -88 -55 c-274 -171 -539 -411 -671 -604 -96 -142 -153 -304 -156 -449
-2 -50 2 -82 18 -180 9 -53 71 -170 113 -216 83 -89 220 -167 353 -200 79 -19
338 -26 427 -11 215 36 551 161 728 271 383 240 633 466 778 706 80 132 107
260 78 367 -27 99 -119 155 -227 138 -49 -7 -57 -18 -67 -91 -19 -137 -131
-291 -351 -485 -95 -84 -301 -233 -398 -287 -172 -97 -180 -101 -283 -147
-137 -62 -249 -97 -380 -120 -39 -7 -150 -7 -196 -1 -310 44 -245 415 140 796
176 176 400 331 692 482 63 32 89 40 145 43 38 2 80 6 94 9 14 4 41 8 60 10
82 8 263 61 311 91 17 11 68 113 89 179 14 44 8 109 -12 128 -50 48 -144 60
-334 44 -71 -6 -150 -27 -259 -67 -49 -18 -82 -22 -180 -22 -246 -2 -394 25
-453 80 -32 30 -34 36 -28 74 10 62 32 96 110 174 181 180 344 274 676 393 78
28 242 62 329 69 60 5 63 4 56 -13 -41 -99 -43 -117 -10 -138 33 -22 89 -30
210 -29 85 0 114 5 195 32 218 74 268 100 293 154 30 62 31 121 4 179 -52 112
-132 168 -277 193 -43 7 -374 17 -380 12z"/>
<path d="M4126 7387 c-50 -52 -199 -239 -256 -324 -8 -11 -70 -99 -138 -195
-582 -821 -1347 -2003 -1523 -2353 -53 -105 -61 -129 -65 -191 l-5 -71 38 -16
c53 -23 83 -27 118 -12 17 6 44 13 60 13 56 3 168 38 207 64 15 10 71 89 124
176 190 306 540 861 715 1133 164 255 237 368 476 732 106 162 440 663 592
886 61 91 111 172 111 182 0 34 -23 38 -209 38 l-183 1 -62 -63z"/>
<path d="M2377 7404 c-1 -2 -23 -5 -47 -8 -50 -6 -50 -6 -175 -35 -372 -84
-814 -331 -1180 -661 -248 -223 -517 -537 -647 -758 -116 -196 -240 -473 -262
-588 -2 -10 -11 -46 -20 -79 -8 -33 -18 -82 -22 -110 -3 -27 -8 -59 -10 -70
-7 -35 -6 -218 1 -260 21 -123 82 -247 168 -341 150 -163 297 -228 502 -219
111 4 154 10 315 41 72 14 280 92 390 145 227 111 443 270 625 461 106 110
150 174 170 243 17 59 45 242 45 300 0 71 -53 114 -77 62 -21 -46 -145 -168
-306 -302 -27 -22 -60 -50 -75 -63 -78 -65 -414 -302 -429 -302 -4 0 -14 -6
-22 -14 -22 -20 -215 -117 -297 -151 -73 -29 -194 -66 -194 -60 0 3 -12 0 -27
-6 -42 -16 -166 -12 -233 7 -174 49 -225 243 -145 550 46 175 121 340 257 563
38 62 78 121 88 131 3 3 20 28 39 55 94 137 283 344 446 490 374 333 884 611
1162 632 122 9 148 -30 92 -142 -77 -154 -416 -475 -592 -559 -86 -41 -161
-41 -169 1 -3 15 -6 15 -26 -7 -23 -25 -38 -67 -45 -130 -12 -100 130 -215
257 -209 130 6 354 128 556 304 211 183 427 476 469 635 36 138 5 251 -93 337
-104 91 -206 125 -374 122 -62 -2 -113 -4 -115 -5z"/>
</g>
</svg>
