<svg width="1904" height="288" viewBox="0 0 1904 288" fill="none" xmlns="http://www.w3.org/2000/svg">
<g clip-path="url(#clip0_29_69)">
<path fill-rule="evenodd" clip-rule="evenodd" d="M-480 180L-370.542 150C-261.083 120 -42.1667 60 176.75 36C395.667 12 614.583 24 833.5 54C1052.42 84 1271.33 132 1490.25 174C1709.17 216 1928.08 252 2037.54 270L2147 288V0H2037.54C1928.08 0 1709.17 0 1490.25 0C1271.33 0 1052.42 0 833.5 0C614.583 0 395.667 0 176.75 0C-42.1667 0 -261.083 0 -370.542 0H-480V180Z" fill="#686DE0"/>
</g>
<defs>
<clipPath id="clip0_29_69">
<rect width="1908" height="288" fill="white" transform="translate(-4)"/>
</clipPath>
</defs>
</svg>
