<svg width="1904" height="288" viewBox="0 0 1904 288" fill="none" xmlns="http://www.w3.org/2000/svg">
<g clip-path="url(#clip0_29_72)">
<path fill-rule="evenodd" clip-rule="evenodd" d="M-480 108L-370.542 138C-261.083 168 -42.1667 228 176.75 252C395.667 276 614.583 264 833.5 234C1052.42 204 1271.33 156 1490.25 114C1709.17 72 1928.08 36 2037.54 18L2147 0V288H2037.54C1928.08 288 1709.17 288 1490.25 288C1271.33 288 1052.42 288 833.5 288C614.583 288 395.667 288 176.75 288C-42.1667 288 -261.083 288 -370.542 288H-480V108Z" fill="#686DE0"/>
</g>
<defs>
<clipPath id="clip0_29_72">
<rect width="1908" height="288" fill="white" transform="translate(-4)"/>
</clipPath>
</defs>
</svg>
