<?xml version="1.0" encoding="utf-8"?><svg viewBox="0 0 36 36" xmlns="http://www.w3.org/2000/svg" xmlns:xlink="http://www.w3.org/1999/xlink"><style>:root>svg{display:none}:root>svg:target{display:block}</style><svg fill="none" viewBox="0 0 33 36" id="auth" xmlns="http://www.w3.org/2000/svg"><path d="M31 34v-3.556a7.043 7.043 0 00-2.123-5.028 7.322 7.322 0 00-5.127-2.083H9.25c-1.923 0-3.767.75-5.127 2.083A7.043 7.043 0 002 30.444V34M23.75 9.111c0 3.928-3.246 7.111-7.25 7.111s-7.25-3.184-7.25-7.11C9.25 5.183 12.496 2 16.5 2s7.25 3.184 7.25 7.111z" stroke="#fff" stroke-width="3" stroke-linecap="round" stroke-linejoin="round"/></svg><svg fill="none" viewBox="0 0 14 12" id="more" xmlns="http://www.w3.org/2000/svg"><path d="M13.636 6.339a.75.75 0 000-1.06L8.863.504a.75.75 0 00-1.061 1.06l4.243 4.244-4.243 4.242a.75.75 0 001.06 1.06l4.774-4.772zm-13.53.22h13v-1.5h-13v1.5z" fill="#686DE0"/></svg><svg fill="none" viewBox="0 0 36 35" id="search" xmlns="http://www.w3.org/2000/svg"><path d="M34 33l-7.733-7.492m4.177-9.73c0 7.609-6.367 13.778-14.222 13.778C8.368 29.556 2 23.387 2 15.778 2 8.168 8.368 2 16.222 2c7.855 0 14.222 6.169 14.222 13.778z" stroke="#fff" stroke-width="3" stroke-linecap="round" stroke-linejoin="round"/></svg></svg>